<svg enable-background="new 0 0 32 32" height="512" viewBox="0 0 32 32" width="512" xmlns="http://www.w3.org/2000/svg"><g id="Layer_56"><path d="m12 13h-1.9854c.9287-2.6895 1.7217-3.9775 4.3604-5.0771.4404-.1836.6895-.6523.5957-1.1201-.0937-.4669-.5039-.8028-.9805-.8028-.001 0-.001 0-.002 0-5.5049.0098-8.667 2.2168-10.9092 7.6113-.7157 1.6944-1.079 3.5078-1.079 5.3887 0 2.8926.875 4.4678 2.209 6.541.1836.2861.501.459.8408.459h6.9502c1.6543 0 3-1.3457 3-3v-7c0-1.6543-1.3457-3-3-3zm1 10c0 .5518-.4482 1-1 1h-6.4014c-1.0849-1.7324-1.5986-2.9072-1.5986-5 0-1.6123.3096-3.1631.9238-4.6162 1.2871-3.0967 2.8086-4.8984 5.0674-5.7578-1.0469 1.3057-1.626 2.9404-2.3125 5.0664-.0986.3047-.0459.6377.1426.8965.1885.2578.4892.4111.8086.4111h3.3701c.5518 0 1 .4482 1 1z"/><path d="m27 13h-1.9854c.9287-2.6895 1.7217-3.9775 4.3604-5.0771.4404-.1836.6895-.6523.5957-1.1201-.0937-.4669-.5039-.8028-.9805-.8028-.001 0-.001 0-.002 0-5.5049.0098-8.667 2.2168-10.9092 7.6113-.7157 1.6944-1.079 3.5078-1.079 5.3887 0 2.8926.875 4.4678 2.209 6.541.1836.2861.501.459.8408.459h6.9502c1.6543 0 3-1.3457 3-3v-7c0-1.6543-1.3457-3-3-3zm1 10c0 .5518-.4482 1-1 1h-6.4014c-1.0849-1.7324-1.5986-2.9072-1.5986-5 0-1.6123.3096-3.1631.9238-4.6162 1.2871-3.0967 2.8086-4.8984 5.0674-5.7578-1.0469 1.3057-1.626 2.9404-2.3125 5.0664-.0986.3047-.0459.6377.1426.8965.1885.2578.4892.4111.8086.4111h3.3701c.5518 0 1 .4482 1 1z"/></g></svg>